<svg width="222" height="132" viewBox="0 0 222 132" fill="none" xmlns="http://www.w3.org/2000/svg">
<g clip-path="url(#clip0_no_secrets)">
<circle cx="7.125" cy="7.125" r="1.125" fill="#191714" fill-opacity="0.16"/>
<circle cx="7.125" cy="31.125" r="1.125" fill="#191714" fill-opacity="0.16"/>
<circle cx="7.125" cy="55.125" r="1.125" fill="#191714" fill-opacity="0.16"/>
<circle cx="7.125" cy="79.125" r="1.125" fill="#191714" fill-opacity="0.16"/>
<circle cx="7.125" cy="103.125" r="1.125" fill="#191714" fill-opacity="0.16"/>
<circle cx="7.125" cy="127.125" r="1.125" fill="#191714" fill-opacity="0.16"/>
<circle cx="31.125" cy="7.125" r="1.125" fill="#191714" fill-opacity="0.16"/>
<circle cx="31.125" cy="31.125" r="1.125" fill="#191714" fill-opacity="0.16"/>
<circle cx="31.125" cy="55.125" r="1.125" fill="#191714" fill-opacity="0.16"/>
<circle cx="31.125" cy="79.125" r="1.125" fill="#191714" fill-opacity="0.16"/>
<circle cx="31.125" cy="103.125" r="1.125" fill="#191714" fill-opacity="0.16"/>
<circle cx="31.125" cy="127.125" r="1.125" fill="#191714" fill-opacity="0.16"/>
<circle cx="55.125" cy="7.125" r="1.125" fill="#191714" fill-opacity="0.16"/>
<circle cx="55.125" cy="31.125" r="1.125" fill="#191714" fill-opacity="0.16"/>
<circle cx="55.125" cy="55.125" r="1.125" fill="#191714" fill-opacity="0.16"/>
<circle cx="55.125" cy="79.125" r="1.125" fill="#191714" fill-opacity="0.16"/>
<circle cx="55.125" cy="103.125" r="1.125" fill="#191714" fill-opacity="0.16"/>
<circle cx="55.125" cy="127.125" r="1.125" fill="#191714" fill-opacity="0.16"/>
<circle cx="79.125" cy="7.125" r="1.125" fill="#191714" fill-opacity="0.16"/>
<circle cx="79.125" cy="31.125" r="1.125" fill="#191714" fill-opacity="0.16"/>
<circle cx="79.125" cy="55.125" r="1.125" fill="#191714" fill-opacity="0.16"/>
<circle cx="79.125" cy="79.125" r="1.125" fill="#191714" fill-opacity="0.16"/>
<circle cx="79.125" cy="103.125" r="1.125" fill="#191714" fill-opacity="0.16"/>
<circle cx="79.125" cy="127.125" r="1.125" fill="#191714" fill-opacity="0.16"/>
<circle cx="103.125" cy="7.125" r="1.125" fill="#191714" fill-opacity="0.16"/>
<circle cx="103.125" cy="31.125" r="1.125" fill="#191714" fill-opacity="0.16"/>
<circle cx="103.125" cy="55.125" r="1.125" fill="#191714" fill-opacity="0.16"/>
<circle cx="103.125" cy="79.125" r="1.125" fill="#191714" fill-opacity="0.16"/>
<circle cx="103.125" cy="103.125" r="1.125" fill="#191714" fill-opacity="0.16"/>
<circle cx="103.125" cy="127.125" r="1.125" fill="#191714" fill-opacity="0.16"/>
<circle cx="127.125" cy="7.125" r="1.125" fill="#191714" fill-opacity="0.16"/>
<circle cx="127.125" cy="31.125" r="1.125" fill="#191714" fill-opacity="0.16"/>
<circle cx="127.125" cy="55.125" r="1.125" fill="#191714" fill-opacity="0.16"/>
<circle cx="127.125" cy="79.125" r="1.125" fill="#191714" fill-opacity="0.16"/>
<circle cx="127.125" cy="103.125" r="1.125" fill="#191714" fill-opacity="0.16"/>
<circle cx="127.125" cy="127.125" r="1.125" fill="#191714" fill-opacity="0.16"/>
<circle cx="151.125" cy="7.125" r="1.125" fill="#191714" fill-opacity="0.16"/>
<circle cx="151.125" cy="31.125" r="1.125" fill="#191714" fill-opacity="0.16"/>
<circle cx="151.125" cy="55.125" r="1.125" fill="#191714" fill-opacity="0.16"/>
<circle cx="151.125" cy="79.125" r="1.125" fill="#191714" fill-opacity="0.16"/>
<circle cx="151.125" cy="103.125" r="1.125" fill="#191714" fill-opacity="0.16"/>
<circle cx="151.125" cy="127.125" r="1.125" fill="#191714" fill-opacity="0.16"/>
<circle cx="175.125" cy="7.125" r="1.125" fill="#191714" fill-opacity="0.16"/>
<circle cx="175.125" cy="31.125" r="1.125" fill="#191714" fill-opacity="0.16"/>
<circle cx="175.125" cy="55.125" r="1.125" fill="#191714" fill-opacity="0.16"/>
<circle cx="175.125" cy="79.125" r="1.125" fill="#191714" fill-opacity="0.16"/>
<circle cx="175.125" cy="103.125" r="1.125" fill="#191714" fill-opacity="0.16"/>
<circle cx="175.125" cy="127.125" r="1.125" fill="#191714" fill-opacity="0.16"/>
<circle cx="199.125" cy="7.125" r="1.125" fill="#191714" fill-opacity="0.16"/>
<circle cx="199.125" cy="31.125" r="1.125" fill="#191714" fill-opacity="0.16"/>
<circle cx="199.125" cy="55.125" r="1.125" fill="#191714" fill-opacity="0.16"/>
<circle cx="199.125" cy="79.125" r="1.125" fill="#191714" fill-opacity="0.16"/>
<circle cx="199.125" cy="103.125" r="1.125" fill="#191714" fill-opacity="0.16"/>
<circle cx="199.125" cy="127.125" r="1.125" fill="#191714" fill-opacity="0.16"/>
</g>
<rect x="55" y="26" width="116" height="80" rx="20" fill="#F7F6F3"/>
<g filter="url(#filter0_dd_no_secrets)">
<path d="M65 48C65 41.3726 70.3726 36 77 36H150C156.627 36 162 41.3726 162 48V84C162 90.6274 156.627 96 150 96H77C70.3726 96 65 90.6274 65 84V48Z" fill="white"/>
<path d="M150 35.75C156.765 35.75 162.25 41.2345 162.25 48V84C162.25 90.7655 156.765 96.25 150 96.25H77C70.2345 96.25 64.75 90.7655 64.75 84V48C64.75 41.2345 70.2345 35.75 77 35.75H150Z" stroke="#352300" stroke-opacity="0.11" stroke-width="0.5"/>
</g>
<rect x="74" y="47" width="30" height="6" rx="3" fill="#191714" fill-opacity="0.09"/>
<rect x="139" y="47" width="17" height="6" rx="3" fill="#191714" fill-opacity="0.09"/>
<rect x="74" y="82" width="25" height="6" rx="3" fill="#191714" fill-opacity="0.09"/>
<rect x="103" y="82" width="10" height="6" rx="3" fill="#191714" fill-opacity="0.09"/>
<rect x="146" y="82" width="10" height="6" rx="3" fill="#191714" fill-opacity="0.09"/>
<rect x="74" y="59" width="6" height="6" rx="3" fill="#FF6007"/>
<rect x="84" y="59" width="6" height="6" rx="3" fill="#FF6007"/>
<rect x="94" y="59" width="6" height="6" rx="3" fill="#FF6007"/>
<rect x="104" y="59" width="6" height="6" rx="3" fill="#FF6007"/>
<rect x="114" y="59" width="6" height="6" rx="3" fill="#FF6007"/>
<rect x="124" y="59" width="6" height="6" rx="3" fill="#FF6007"/>
<defs>
<filter id="filter0_dd_no_secrets" x="53.5" y="28.5" width="120" height="83" filterUnits="userSpaceOnUse" color-interpolation-filters="sRGB">
<feFlood flood-opacity="0" result="BackgroundImageFix"/>
<feColorMatrix in="SourceAlpha" type="matrix" values="0 0 0 0 0 0 0 0 0 0 0 0 0 0 0 0 0 0 127 0" result="hardAlpha"/>
<feMorphology radius="5" operator="erode" in="SourceAlpha" result="effect1_dropShadow_no_secrets"/>
<feOffset dy="4"/>
<feGaussianBlur stdDeviation="8"/>
<feColorMatrix type="matrix" values="0 0 0 0 0.0627451 0 0 0 0 0.0784314 0 0 0 0 0.101961 0 0 0 0.06 0"/>
<feBlend mode="normal" in2="BackgroundImageFix" result="effect1_dropShadow_no_secrets"/>
<feColorMatrix in="SourceAlpha" type="matrix" values="0 0 0 0 0 0 0 0 0 0 0 0 0 0 0 0 0 0 127 0" result="hardAlpha"/>
<feMorphology radius="3" operator="erode" in="SourceAlpha" result="effect2_dropShadow_no_secrets"/>
<feOffset dy="2"/>
<feGaussianBlur stdDeviation="3"/>
<feColorMatrix type="matrix" values="0 0 0 0 0.0627451 0 0 0 0 0.0784314 0 0 0 0 0.101961 0 0 0 0.035 0"/>
<feBlend mode="normal" in2="effect1_dropShadow_no_secrets" result="effect2_dropShadow_no_secrets"/>
<feBlend mode="normal" in="SourceGraphic" in2="effect2_dropShadow_no_secrets" result="shape"/>
</filter>
<clipPath id="clip0_no_secrets">
<rect width="222" height="132" fill="white"/>
</clipPath>
</defs>
</svg>